<mxfile host="app.diagrams.net" modified="2021-03-09T19:48:55.831Z" agent="5.0 (Windows NT 10.0; Win64; x64) AppleWebKit/537.36 (KHTML, like Gecko) Chrome/88.0.4324.190 Safari/537.36" etag="RZ6LYjtob6xorDXjJ6TD" version="14.4.6" type="github">
  <diagram id="i_vO6CL65eFUIL7xPz2L" name="Page-1">
    <mxGraphModel dx="981" dy="526" grid="1" gridSize="10" guides="1" tooltips="1" connect="1" arrows="1" fold="1" page="1" pageScale="1" pageWidth="827" pageHeight="1169" math="0" shadow="0">
      <root>
        <mxCell id="0" />
        <mxCell id="1" parent="0" />
        <mxCell id="aBNJ7qtxMeprO6_v484M-11" style="edgeStyle=orthogonalEdgeStyle;rounded=0;orthogonalLoop=1;jettySize=auto;html=1;" edge="1" parent="1" source="aBNJ7qtxMeprO6_v484M-2" target="aBNJ7qtxMeprO6_v484M-10">
          <mxGeometry relative="1" as="geometry" />
        </mxCell>
        <mxCell id="aBNJ7qtxMeprO6_v484M-13" style="edgeStyle=orthogonalEdgeStyle;rounded=0;orthogonalLoop=1;jettySize=auto;html=1;entryX=0.5;entryY=0;entryDx=0;entryDy=0;" edge="1" parent="1" source="aBNJ7qtxMeprO6_v484M-2" target="aBNJ7qtxMeprO6_v484M-12">
          <mxGeometry relative="1" as="geometry" />
        </mxCell>
        <mxCell id="aBNJ7qtxMeprO6_v484M-25" style="edgeStyle=orthogonalEdgeStyle;rounded=0;orthogonalLoop=1;jettySize=auto;html=1;entryX=0.5;entryY=0;entryDx=0;entryDy=0;" edge="1" parent="1" source="aBNJ7qtxMeprO6_v484M-2" target="aBNJ7qtxMeprO6_v484M-4">
          <mxGeometry relative="1" as="geometry">
            <Array as="points">
              <mxPoint x="520" y="240" />
              <mxPoint x="520" y="210" />
              <mxPoint x="370" y="210" />
            </Array>
          </mxGeometry>
        </mxCell>
        <mxCell id="aBNJ7qtxMeprO6_v484M-26" value="Enable" style="edgeLabel;html=1;align=center;verticalAlign=middle;resizable=0;points=[];" vertex="1" connectable="0" parent="aBNJ7qtxMeprO6_v484M-25">
          <mxGeometry x="-0.1456" y="-2" relative="1" as="geometry">
            <mxPoint x="-22.07" y="-8" as="offset" />
          </mxGeometry>
        </mxCell>
        <mxCell id="aBNJ7qtxMeprO6_v484M-29" style="edgeStyle=orthogonalEdgeStyle;rounded=0;orthogonalLoop=1;jettySize=auto;html=1;entryX=0.5;entryY=1;entryDx=0;entryDy=0;" edge="1" parent="1" source="aBNJ7qtxMeprO6_v484M-2" target="aBNJ7qtxMeprO6_v484M-21">
          <mxGeometry relative="1" as="geometry">
            <Array as="points">
              <mxPoint x="530" y="300" />
              <mxPoint x="530" y="430" />
              <mxPoint x="370" y="430" />
            </Array>
          </mxGeometry>
        </mxCell>
        <mxCell id="aBNJ7qtxMeprO6_v484M-30" value="Enable voltage monitor" style="edgeLabel;html=1;align=center;verticalAlign=middle;resizable=0;points=[];" vertex="1" connectable="0" parent="aBNJ7qtxMeprO6_v484M-29">
          <mxGeometry x="0.2088" y="3" relative="1" as="geometry">
            <mxPoint x="-34.48" as="offset" />
          </mxGeometry>
        </mxCell>
        <mxCell id="aBNJ7qtxMeprO6_v484M-2" value="ESP8266" style="whiteSpace=wrap;html=1;aspect=fixed;" vertex="1" parent="1">
          <mxGeometry x="550" y="220" width="100" height="100" as="geometry" />
        </mxCell>
        <mxCell id="aBNJ7qtxMeprO6_v484M-5" style="edgeStyle=orthogonalEdgeStyle;rounded=0;orthogonalLoop=1;jettySize=auto;html=1;" edge="1" parent="1" source="aBNJ7qtxMeprO6_v484M-3" target="aBNJ7qtxMeprO6_v484M-4">
          <mxGeometry relative="1" as="geometry" />
        </mxCell>
        <mxCell id="aBNJ7qtxMeprO6_v484M-23" style="edgeStyle=orthogonalEdgeStyle;rounded=0;orthogonalLoop=1;jettySize=auto;html=1;entryX=0;entryY=0.5;entryDx=0;entryDy=0;" edge="1" parent="1" source="aBNJ7qtxMeprO6_v484M-3" target="aBNJ7qtxMeprO6_v484M-21">
          <mxGeometry relative="1" as="geometry">
            <Array as="points">
              <mxPoint x="280" y="320" />
              <mxPoint x="280" y="380" />
            </Array>
          </mxGeometry>
        </mxCell>
        <mxCell id="aBNJ7qtxMeprO6_v484M-3" value="Litioum battery 3.7v" style="whiteSpace=wrap;html=1;aspect=fixed;" vertex="1" parent="1">
          <mxGeometry x="160" y="280" width="80" height="80" as="geometry" />
        </mxCell>
        <mxCell id="aBNJ7qtxMeprO6_v484M-6" style="edgeStyle=orthogonalEdgeStyle;rounded=0;orthogonalLoop=1;jettySize=auto;html=1;" edge="1" parent="1" source="aBNJ7qtxMeprO6_v484M-4" target="aBNJ7qtxMeprO6_v484M-2">
          <mxGeometry relative="1" as="geometry">
            <Array as="points">
              <mxPoint x="520" y="260" />
              <mxPoint x="520" y="260" />
            </Array>
          </mxGeometry>
        </mxCell>
        <mxCell id="aBNJ7qtxMeprO6_v484M-27" value="Power" style="edgeLabel;html=1;align=center;verticalAlign=middle;resizable=0;points=[];" vertex="1" connectable="0" parent="aBNJ7qtxMeprO6_v484M-6">
          <mxGeometry x="-0.1666" relative="1" as="geometry">
            <mxPoint as="offset" />
          </mxGeometry>
        </mxCell>
        <mxCell id="aBNJ7qtxMeprO6_v484M-4" value="Voltage regulator 3.3v" style="rounded=0;whiteSpace=wrap;html=1;" vertex="1" parent="1">
          <mxGeometry x="320" y="230" width="100" height="60" as="geometry" />
        </mxCell>
        <mxCell id="aBNJ7qtxMeprO6_v484M-10" value="Sensor 1" style="ellipse;whiteSpace=wrap;html=1;aspect=fixed;" vertex="1" parent="1">
          <mxGeometry x="540" y="440" width="60" height="60" as="geometry" />
        </mxCell>
        <mxCell id="aBNJ7qtxMeprO6_v484M-12" value="Sensor 2" style="ellipse;whiteSpace=wrap;html=1;aspect=fixed;" vertex="1" parent="1">
          <mxGeometry x="600" y="440" width="60" height="60" as="geometry" />
        </mxCell>
        <mxCell id="aBNJ7qtxMeprO6_v484M-14" value="" style="html=1;verticalLabelPosition=bottom;align=center;labelBackgroundColor=#ffffff;verticalAlign=top;strokeWidth=2;strokeColor=#0080F0;shadow=0;dashed=0;shape=mxgraph.ios7.icons.wifi;pointerEvents=1" vertex="1" parent="1">
          <mxGeometry x="567.15" y="170" width="45.7" height="40" as="geometry" />
        </mxCell>
        <mxCell id="aBNJ7qtxMeprO6_v484M-15" value="" style="html=1;verticalLabelPosition=bottom;align=center;labelBackgroundColor=#ffffff;verticalAlign=top;strokeWidth=2;strokeColor=#0080F0;shadow=0;dashed=0;shape=mxgraph.ios7.icons.wifi;pointerEvents=1" vertex="1" parent="1">
          <mxGeometry x="760" y="170" width="45" height="40" as="geometry" />
        </mxCell>
        <mxCell id="aBNJ7qtxMeprO6_v484M-17" value="Semilimes" style="shape=cylinder3;whiteSpace=wrap;html=1;boundedLbl=1;backgroundOutline=1;size=15;" vertex="1" parent="1">
          <mxGeometry x="750" y="215" width="70" height="90" as="geometry" />
        </mxCell>
        <mxCell id="aBNJ7qtxMeprO6_v484M-18" value="&lt;font style=&quot;font-size: 18px&quot;&gt;Internet&lt;/font&gt;" style="text;html=1;strokeColor=none;fillColor=none;align=center;verticalAlign=middle;whiteSpace=wrap;rounded=0;" vertex="1" parent="1">
          <mxGeometry x="670" y="150" width="50" height="20" as="geometry" />
        </mxCell>
        <mxCell id="aBNJ7qtxMeprO6_v484M-20" value="" style="endArrow=none;dashed=1;html=1;" edge="1" parent="1">
          <mxGeometry width="50" height="50" relative="1" as="geometry">
            <mxPoint x="690" y="370" as="sourcePoint" />
            <mxPoint x="690" y="180" as="targetPoint" />
          </mxGeometry>
        </mxCell>
        <mxCell id="aBNJ7qtxMeprO6_v484M-24" style="edgeStyle=orthogonalEdgeStyle;rounded=0;orthogonalLoop=1;jettySize=auto;html=1;" edge="1" parent="1" source="aBNJ7qtxMeprO6_v484M-21">
          <mxGeometry relative="1" as="geometry">
            <mxPoint x="550" y="280" as="targetPoint" />
            <Array as="points">
              <mxPoint x="510" y="380" />
              <mxPoint x="510" y="280" />
              <mxPoint x="550" y="280" />
            </Array>
          </mxGeometry>
        </mxCell>
        <mxCell id="aBNJ7qtxMeprO6_v484M-28" value="ADC_in" style="edgeLabel;html=1;align=center;verticalAlign=middle;resizable=0;points=[];" vertex="1" connectable="0" parent="aBNJ7qtxMeprO6_v484M-24">
          <mxGeometry x="0.075" y="-1" relative="1" as="geometry">
            <mxPoint as="offset" />
          </mxGeometry>
        </mxCell>
        <mxCell id="aBNJ7qtxMeprO6_v484M-21" value="Voltage monitor" style="rounded=0;whiteSpace=wrap;html=1;" vertex="1" parent="1">
          <mxGeometry x="320" y="350" width="100" height="60" as="geometry" />
        </mxCell>
      </root>
    </mxGraphModel>
  </diagram>
</mxfile>
